<?xml version="1.0" standalone="no"?>
<!DOCTYPE svg PUBLIC "-//W3C//DTD SVG 20010904//EN"
 "http://www.w3.org/TR/2001/REC-SVG-20010904/DTD/svg10.dtd">
<svg version="1.0" xmlns="http://www.w3.org/2000/svg"
 width="928.000000pt" height="928.000000pt" viewBox="0 0 928.000000 928.000000"
 preserveAspectRatio="xMidYMid meet">
<metadata>
Created by potrace 1.14, written by Peter Selinger 2001-2017
</metadata>
<g transform="translate(0.000000,928.000000) scale(0.100000,-0.100000)"
fill="#000000" stroke="none">
<path d="M4108 8733 c-10 -2 -15 -10 -11 -19 3 -9 -1 -14 -12 -14 -13 0 -16
-6 -11 -22 3 -13 6 -26 6 -30 0 -13 48 -9 70 5 17 10 22 9 29 -1 19 -31 51 10
51 66 0 20 -4 22 -52 21 -29 -1 -61 -3 -70 -6z"/>
<path d="M2935 8476 c-321 -107 -722 -305 -1040 -513 -1003 -657 -1659 -1628
-1844 -2728 -35 -209 -45 -343 -45 -600 0 -346 32 -601 114 -918 173 -670 512
-1262 1020 -1781 460 -471 981 -815 1605 -1063 150 -59 424 -152 525 -177 14
-4 77 -20 140 -36 909 -231 1944 -190 2845 112 801 268 1468 696 2000 1283
230 253 449 565 561 800 22 44 42 82 45 85 11 8 99 189 99 202 0 7 -29 -16
-65 -52 -35 -35 -67 -61 -71 -57 -4 4 33 47 82 97 86 87 90 94 132 203 74 192
150 470 175 639 7 45 -10 70 -46 70 -27 1 -37 21 -17 33 21 13 9 25 -12 14
-13 -7 -25 -12 -28 -11 -3 1 -5 -4 -5 -10 0 -37 -50 -18 -121 47 -23 20 -139
110 -180 139 l-27 19 24 9 c16 6 25 5 27 -2 2 -6 17 3 33 20 17 17 27 35 24
39 -2 5 2 12 11 15 8 3 13 10 10 15 -4 5 15 7 44 4 33 -3 50 -1 50 6 0 7 10 9
25 5 15 -4 30 -1 40 9 13 14 11 17 -20 36 -19 11 -35 27 -35 36 0 8 -4 15 -10
15 -5 0 -10 -4 -10 -8 0 -4 -19 -9 -42 -11 -24 -1 -50 -9 -59 -17 -8 -7 -21
-14 -28 -14 -6 0 -21 -9 -33 -20 -22 -20 -67 -21 -91 -2 -7 6 -26 9 -43 7 -16
-3 -44 -8 -62 -11 -19 -3 -40 0 -47 6 -12 10 -12 16 2 37 17 26 17 26 -4 14
-32 -17 -45 -14 -38 9 7 21 -4 25 -50 22 -20 -2 -20 -1 -1 13 26 20 29 77 4
69 -10 -3 -18 0 -18 6 0 15 -43 30 -54 19 -16 -15 -26 -10 -36 17 -8 20 -14
24 -32 18 -21 -6 -22 -5 -8 12 8 10 10 16 6 12 -11 -10 -38 41 -32 59 3 7 -1
13 -9 13 -8 0 -15 5 -15 10 0 6 9 10 20 10 11 0 20 5 20 11 0 5 8 9 18 8 31
-3 43 1 37 11 -4 6 7 8 29 4 28 -4 36 -2 36 10 0 9 -9 16 -20 16 -12 0 -40 10
-63 21 -52 27 -97 40 -97 29 0 -5 6 -11 13 -13 6 -3 3 -6 -9 -6 -11 -1 -29 7
-40 17 -33 29 -62 42 -79 36 -8 -3 -15 -1 -15 6 0 7 -8 9 -20 5 -12 -4 -20 -2
-20 5 0 6 5 8 10 5 6 -3 10 -1 10 4 0 15 -27 14 -33 -1 -4 -10 -7 -10 -18 0
-12 11 -12 14 1 22 8 6 21 8 28 5 17 -6 54 13 47 24 -2 5 -16 12 -30 15 -22 6
-75 49 -75 63 0 3 7 3 15 -1 15 -5 19 5 15 33 -2 13 1 13 16 0 11 -7 27 -23
37 -34 10 -11 16 -14 12 -7 -3 6 -1 12 4 12 6 0 11 -6 11 -14 0 -7 10 -13 23
-13 12 0 42 -13 67 -29 63 -41 81 -51 115 -70 69 -39 234 -155 274 -193 23
-23 49 -41 56 -41 8 0 20 -6 27 -13 7 -7 54 -36 103 -64 196 -110 283 -162
355 -211 47 -32 78 -48 84 -42 14 14 12 484 -2 625 -122 1163 -751 2195 -1775
2908 -221 154 -648 394 -713 401 -14 2 -29 7 -32 13 -10 15 -53 36 -59 29 -4
-3 -2 -16 4 -29 8 -17 7 -25 -4 -35 -20 -19 -5 -35 28 -28 16 3 29 1 29 -4 0
-6 -7 -10 -16 -10 -12 0 -15 -6 -10 -24 6 -25 -8 -44 -19 -26 -12 20 -35 10
-35 -15 0 -14 -4 -25 -9 -25 -5 0 -13 -15 -16 -32 -4 -18 -12 -36 -17 -39 -6
-4 -1 -16 13 -30 15 -15 21 -17 16 -6 -4 12 -1 17 9 17 11 0 15 -6 11 -20 -4
-14 4 -25 27 -39 20 -14 25 -21 14 -21 -9 0 -20 5 -23 10 -4 6 -25 22 -47 36
-31 20 -43 23 -54 14 -10 -9 -11 -17 -4 -30 6 -10 10 -27 9 -37 0 -16 -2 -15
-16 5 -16 23 -33 29 -33 12 0 -5 14 -25 31 -45 18 -20 28 -39 24 -43 -3 -4
-14 2 -23 13 -10 11 -26 27 -36 35 -18 14 -19 13 -12 -30 4 -25 8 -54 9 -65 3
-30 48 -118 68 -133 10 -7 24 -18 31 -25 8 -6 27 -19 43 -27 42 -22 42 -38 0
-38 -28 0 -38 5 -49 27 -22 41 -85 101 -106 101 -11 0 -20 4 -20 10 0 5 -15
18 -32 27 -18 10 -33 24 -34 31 -3 37 -5 42 -18 42 -8 0 -16 6 -19 13 -2 6 -7
10 -10 7 -10 -9 15 -91 29 -97 8 -3 14 -15 13 -27 0 -11 -3 -15 -6 -8 -7 17
-23 15 -23 -3 0 -9 -9 -15 -21 -15 -20 0 -21 -4 -15 -40 5 -34 4 -40 -11 -40
-17 -1 -16 -2 1 -15 17 -13 18 -15 2 -21 -20 -8 -18 -73 3 -98 8 -9 10 -16 6
-16 -5 0 -1 -8 7 -17 22 -26 30 -43 21 -43 -5 0 -17 14 -27 31 -23 40 -38 22
-30 -36 3 -23 -2 -68 -11 -105 -9 -36 -18 -83 -19 -105 -3 -49 -44 -162 -95
-263 -22 -43 -47 -93 -55 -112 -32 -69 -72 -129 -136 -205 -36 -43 -78 -96
-95 -119 -16 -22 -70 -89 -120 -147 -81 -96 -156 -213 -208 -324 -41 -87 -89
-183 -126 -250 -115 -211 -197 -354 -218 -383 -13 -17 -31 -47 -39 -65 -27
-55 -50 -95 -78 -132 -15 -19 -34 -50 -42 -68 -26 -56 -42 -80 -58 -89 -9 -5
-16 -18 -16 -28 0 -11 -6 -20 -13 -20 -7 0 -19 -22 -26 -50 -7 -29 -19 -50
-26 -50 -7 0 -18 -15 -24 -32 -6 -18 -24 -42 -41 -53 -16 -11 -30 -23 -30 -27
0 -5 -15 -8 -34 -8 -22 0 -40 -7 -48 -17 -7 -10 -24 -20 -38 -22 -48 -6 -80
-30 -80 -59 0 -22 -2 -24 -11 -12 -8 12 -9 9 -5 -12 6 -24 4 -27 -21 -25 -16
1 -27 -3 -26 -9 1 -7 -11 -14 -28 -18 -25 -5 -29 -9 -24 -26 5 -15 0 -23 -19
-32 -25 -11 -36 -38 -16 -38 6 0 10 -9 10 -20 0 -11 -4 -20 -9 -20 -14 0 -1
-73 15 -86 10 -8 10 -14 2 -22 -6 -6 -12 -21 -13 -34 -2 -13 -6 -30 -10 -39
-3 -10 -2 -20 4 -24 14 -8 14 -55 1 -55 -5 0 -10 -11 -10 -25 0 -14 -5 -25
-11 -25 -6 0 -20 -11 -31 -25 -11 -14 -25 -25 -32 -25 -8 0 -43 -28 -79 -63
l-66 -63 8 -53 c7 -42 6 -51 -5 -47 -16 6 -19 -10 -4 -19 6 -3 5 -16 -2 -33
-15 -35 -36 -58 -44 -49 -10 9 -32 207 -38 342 -5 92 -28 243 -41 264 -1 3 -8
50 -15 104 -6 55 -18 117 -26 139 -7 22 -16 58 -19 81 -3 23 -9 71 -14 107 -4
36 -11 72 -15 81 -5 12 -1 18 14 22 29 8 47 0 53 -24 3 -10 12 -19 21 -19 15
0 68 -31 118 -69 14 -12 30 -21 36 -21 5 0 17 -9 26 -19 12 -13 26 -18 42 -15
20 4 24 1 22 -13 -2 -15 5 -19 40 -21 33 -3 42 0 42 13 0 10 -5 14 -12 10 -7
-4 -3 3 10 14 13 11 21 25 17 31 -4 6 -1 17 5 25 7 8 10 21 7 30 -4 8 1 19 10
24 13 7 5 15 -45 40 -34 17 -75 31 -91 31 -20 0 -34 7 -41 20 -6 11 -17 20
-25 20 -26 0 -37 37 -19 65 9 14 20 25 25 25 5 0 9 5 9 10 0 6 -7 10 -17 10
-15 0 -15 1 0 18 10 10 17 24 17 32 0 7 8 19 18 26 12 10 13 13 3 14 -10 0
-11 3 -2 14 7 8 8 17 3 20 -9 6 -8 53 4 113 5 25 2 33 -15 43 -26 14 -22 58 9
79 21 14 29 38 9 25 -7 -4 -10 -1 -7 7 3 8 23 18 46 23 23 5 42 14 42 20 0 6
16 12 36 14 21 1 42 9 48 17 6 7 27 15 46 17 21 2 34 8 33 15 -2 7 9 19 25 27
15 8 53 40 86 71 32 31 62 52 65 47 7 -11 71 -4 71 9 0 4 -16 5 -35 2 -19 -3
-35 -2 -35 2 0 13 43 45 69 52 14 3 31 10 38 15 7 5 18 6 24 2 7 -4 9 -3 6 3
-4 6 0 14 9 17 8 3 13 9 11 13 -3 5 11 18 29 30 26 17 34 19 34 8 0 -26 53 8
55 35 1 15 18 30 35 30 10 0 32 16 49 35 17 19 38 35 46 35 9 0 14 4 11 9 -3
4 2 15 12 24 9 9 28 26 42 39 13 13 38 33 55 46 44 33 196 186 225 227 14 19
33 37 42 40 25 9 91 112 84 130 -5 13 -8 13 -26 -2 -11 -10 -20 -26 -20 -37 0
-15 -3 -17 -12 -8 -8 8 -16 6 -30 -10 -10 -12 -18 -25 -18 -30 0 -5 -10 -6
-21 -3 -15 5 -20 3 -17 -6 5 -15 -38 -59 -59 -59 -7 0 -16 -7 -19 -15 -4 -8
-13 -15 -20 -15 -8 0 -18 -8 -21 -17 -9 -24 -23 -33 -51 -33 -13 0 -20 -4 -17
-10 3 -5 1 -10 -4 -10 -6 0 -10 -5 -9 -11 2 -6 -5 -13 -14 -14 -20 -4 -77 -65
-78 -84 0 -9 -8 -11 -25 -7 -14 4 -25 3 -24 -1 1 -5 1 -15 0 -22 -1 -12 -4
-12 -13 -3 -18 18 -28 15 -21 -5 6 -16 4 -16 -9 -5 -14 11 -17 10 -20 -9 -2
-13 -11 -23 -23 -25 -11 -2 -26 -12 -34 -23 -7 -12 -19 -21 -27 -21 -7 0 -18
-8 -24 -17 -8 -13 -13 -14 -16 -5 -7 16 -35 15 -70 -3 -25 -13 -30 -13 -46 2
-14 12 -21 14 -30 5 -7 -7 -19 -7 -36 -1 -13 5 -33 7 -43 4 -11 -4 -19 -2 -19
4 0 6 -4 11 -10 11 -5 0 -10 -6 -10 -13 0 -23 -85 -15 -114 10 -16 14 -28 18
-32 12 -3 -6 -13 -8 -21 -5 -22 9 -56 -13 -49 -31 4 -10 2 -13 -8 -10 -8 3
-27 2 -43 -2 -26 -7 -40 -4 -118 25 -11 4 -24 6 -28 5 -5 -1 -23 5 -40 13 -18
8 -41 16 -52 18 -11 2 -19 9 -18 16 2 6 -4 9 -12 6 -9 -4 -18 1 -22 12 -4 11
-13 24 -21 30 -8 6 -12 16 -8 22 4 6 -7 21 -24 33 -16 13 -30 29 -30 36 0 7
-6 13 -14 13 -8 0 -17 9 -21 19 -3 11 -14 23 -24 26 -17 5 -35 38 -32 58 1 5
-9 7 -21 6 -35 -5 -75 42 -83 95 -4 26 -13 47 -22 50 -13 5 -13 9 -2 22 8 10
9 18 3 22 -6 4 -17 21 -25 39 -7 18 -23 36 -34 41 -19 9 -18 10 8 17 15 4 27
11 27 15 0 4 6 8 13 7 31 -1 48 4 42 12 -3 6 -18 6 -38 0 -43 -12 -47 -12 -40
6 4 11 -4 19 -24 27 -36 13 -63 50 -43 56 8 3 2 13 -16 28 -16 13 -21 21 -11
18 12 -4 17 -1 17 11 0 12 -5 15 -16 11 -21 -8 -88 58 -80 79 3 10 -3 17 -18
21 -23 5 -32 25 -41 92 -2 13 -9 30 -15 37 -6 7 -12 31 -14 52 -2 25 -7 37
-16 35 -12 -3 -29 14 -30 30 0 4 9 9 19 13 11 3 22 12 25 20 4 11 -2 13 -26 8
-21 -4 -29 -3 -24 5 3 6 2 13 -3 17 -6 3 -8 12 -5 20 3 7 -1 24 -10 37 -8 13
-22 43 -31 67 -12 36 -13 46 -3 53 9 5 9 8 2 8 -12 0 -22 27 -31 85 -5 32 -9
39 -24 41 -5 1 -12 2 -15 3 -4 0 -1 8 6 16 11 13 9 20 -14 44 -14 15 -23 30
-20 34 4 3 -2 19 -12 34 -10 15 -19 41 -20 56 -1 15 -13 50 -28 76 -14 27 -23
56 -20 65 3 9 1 16 -5 16 -6 0 -11 5 -11 11 0 6 -11 24 -25 41 -14 16 -25 35
-25 42 0 7 -13 22 -29 33 -20 16 -30 34 -35 64 -4 24 -12 47 -19 52 -9 7 -9
10 1 14 14 6 16 33 2 33 -6 0 -9 27 -8 63 1 34 -3 71 -9 82 -6 11 -10 55 -9
98 3 94 11 93 -169 33z m3845 -227 c0 -5 -4 -9 -10 -9 -5 0 -10 7 -10 16 0 8
5 12 10 9 6 -3 10 -10 10 -16z m0 -54 c0 -8 -7 -15 -15 -15 -26 0 -18 20 13
29 1 1 2 -6 2 -14z m170 -215 c0 -5 -5 -10 -11 -10 -5 0 -7 5 -4 10 3 6 8 10
11 10 2 0 4 -4 4 -10z m-435 -250 c3 -5 2 -10 -4 -10 -5 0 -13 5 -16 10 -3 6
-2 10 4 10 5 0 13 -4 16 -10z m337 -54 c-10 -22 -8 -29 13 -52 29 -31 32 -54
8 -54 -23 0 -53 29 -53 51 0 12 -5 16 -15 13 -8 -4 -15 -2 -15 4 0 6 5 12 12
14 7 3 13 16 13 29 2 40 14 54 33 35 13 -12 13 -20 4 -40z m-301 27 c13 -16
12 -17 -3 -4 -10 7 -18 15 -18 17 0 8 8 3 21 -13z m-45 -30 c-4 -4 -11 -1 -16
7 -16 25 -11 35 7 17 9 -9 13 -20 9 -24z m294 27 c0 -5 -4 -10 -10 -10 -5 0
-10 5 -10 10 0 6 5 10 10 10 6 0 10 -4 10 -10z m-320 -40 c23 -33 46 -41 36
-12 -7 16 -6 16 11 0 16 -17 16 -18 -2 -33 -19 -13 -22 -12 -52 23 -18 20 -33
40 -33 45 0 16 20 5 40 -23z m440 -60 c9 -16 8 -20 -5 -20 -8 0 -15 9 -15 20
0 11 2 20 5 20 2 0 9 -9 15 -20z m-430 -3 c0 -7 10 -18 21 -26 19 -11 21 -11
16 3 -4 9 -1 16 6 16 32 -1 70 -55 56 -82 -14 -26 -36 -22 -53 11 -9 16 -29
34 -46 39 -28 10 -39 30 -23 45 10 11 23 8 23 -6z m310 -1 c0 -8 -7 -16 -15
-20 -17 -6 -18 -4 -9 18 8 20 24 21 24 2z m-132 -126 c-7 -10 -14 -17 -17 -15
-4 4 18 35 25 35 2 0 -1 -9 -8 -20z m202 -5 c0 -8 -2 -15 -4 -15 -2 0 -6 7
-10 15 -3 8 -1 15 4 15 6 0 10 -7 10 -15z m-410 -365 c0 -19 -11 -98 -25 -175
-14 -77 -32 -192 -41 -255 -17 -126 -22 -146 -30 -137 -6 6 8 142 37 342 25
169 38 266 39 280 1 27 20 -25 20 -55z m-129 -5 c-8 -46 -9 -47 -10 -13 -1 34
8 73 15 66 2 -2 -1 -26 -5 -53z m309 5 c0 -5 -2 -10 -4 -10 -3 0 -8 5 -11 10
-3 6 -1 10 4 10 6 0 11 -4 11 -10z m-259 -149 c-10 -70 -20 -184 -37 -416 -10
-144 -17 -114 -9 45 8 195 21 343 37 426 16 90 23 46 9 -55z m-66 39 c-4 -23
-9 -39 -12 -36 -3 2 -2 23 2 46 4 23 9 39 12 36 3 -2 2 -23 -2 -46z m215 -50
c22 -21 40 -48 40 -59 0 -10 42 -69 94 -129 191 -224 235 -306 236 -433 0 -61
-3 -78 -16 -83 -28 -11 -33 -7 -34 27 0 17 -2 46 -4 62 -2 17 -4 36 -5 43 0 6
-7 12 -15 12 -8 0 -17 15 -20 33 -7 40 -35 83 -36 56 0 -19 -40 -32 -64 -23
-12 5 -15 2 -10 -10 4 -12 2 -15 -9 -10 -10 4 -15 0 -14 -13 1 -11 -5 -18 -18
-18 -11 0 -19 -5 -18 -12 4 -18 -33 -26 -59 -12 l-23 12 28 10 c20 6 27 15 27
33 0 20 4 25 23 22 18 -2 21 1 19 20 -3 23 13 31 21 10 3 -8 13 -2 28 16 21
26 23 27 29 10 4 -10 6 6 5 36 -2 60 -22 123 -36 114 -5 -3 -9 1 -9 10 0 22
-33 76 -47 76 -7 0 -13 7 -13 15 0 8 -4 15 -10 15 -5 0 -10 -6 -10 -14 0 -8
-8 -21 -19 -28 -10 -7 -21 -29 -25 -48 -13 -68 -29 -120 -36 -120 -4 0 -10
-14 -14 -30 -3 -17 -9 -29 -13 -28 -20 6 -53 -24 -53 -49 0 -20 -3 -23 -14
-14 -11 9 -15 8 -20 -5 -4 -9 -13 -14 -21 -10 -8 3 -15 0 -16 -7 0 -7 -7 -39
-14 -72 l-14 -60 5 115 c3 63 8 117 10 119 2 2 4 -3 4 -12 0 -11 8 -17 25 -17
15 0 25 6 25 15 0 8 13 21 29 29 28 15 57 64 81 141 7 22 16 50 21 63 5 13 9
35 8 50 0 26 -1 26 -9 5 -11 -26 -54 -40 -74 -24 -17 14 -9 51 10 51 10 0 14
14 14 50 0 40 -3 48 -15 44 -9 -4 -15 -1 -15 7 0 18 11 59 16 59 2 0 21 -18
44 -40z m-238 -40 c-2 -22 -8 -43 -13 -46 -5 -3 -9 -23 -9 -45 0 -22 -4 -38
-8 -35 -17 10 13 166 32 166 1 0 0 -18 -2 -40z m165 -12 c-3 -8 -6 -5 -6 6 -1
11 2 17 5 13 3 -3 4 -12 1 -19z m-197 -205 c0 -5 -5 -15 -10 -23 -8 -12 -10
-11 -10 8 0 12 5 22 10 22 6 0 10 -3 10 -7z m-13 -65 c-3 -8 -6 -5 -6 6 -1 11
2 17 5 13 3 -3 4 -12 1 -19z m90 -280 c-2 -18 -4 -6 -4 27 0 33 2 48 4 33 2
-15 2 -42 0 -60z m238 0 c-1 -17 -8 -23 -23 -22 -14 0 -22 -6 -22 -15 0 -14
-2 -14 -9 -2 -7 11 -2 21 17 38 34 29 39 29 37 1z m-71 -33 c7 -18 -21 -47
-42 -43 -8 2 -17 9 -20 17 -3 8 0 11 7 7 12 -8 44 18 34 28 -4 3 -2 6 4 6 6 0
13 -7 17 -15z m-123 -35 c23 -13 26 -42 3 -33 -9 3 -20 0 -25 -8 -6 -10 -9 -4
-9 19 0 35 2 37 31 22z m494 -70 c3 -6 -1 -13 -10 -16 -19 -8 -30 0 -20 15 8
14 22 14 30 1z m-518 -42 c-3 -7 -5 -2 -5 12 0 14 2 19 5 13 2 -7 2 -19 0 -25z
m535 -45 c2 -5 1 -24 -3 -43 l-6 -35 -2 32 c-1 24 -5 31 -16 27 -15 -6 -21 7
-8 19 9 9 31 9 35 0z m-535 -45 c-3 -8 -6 -5 -6 6 -1 11 2 17 5 13 3 -3 4 -12
1 -19z m488 2 c3 -5 1 -10 -4 -10 -6 0 -11 5 -11 10 0 6 2 10 4 10 3 0 8 -4
11 -10z m37 -75 c-2 -14 -10 -25 -17 -25 -10 0 -11 5 -2 25 15 32 26 32 19 0z
m-515 -17 c-3 -8 -6 -5 -6 6 -1 11 2 17 5 13 3 -3 4 -12 1 -19z m-115 -56 c-7
-2 -10 -8 -6 -13 3 -5 0 -9 -6 -9 -8 0 -9 7 -5 18 4 9 7 26 7 37 0 17 1 17 11
-4 9 -19 9 -25 -1 -29z m115 -74 c-2 -18 -4 -6 -4 27 0 33 2 48 4 33 2 -15 2
-42 0 -60z m583 -18 c64 -88 179 -199 240 -229 49 -25 162 -91 177 -103 7 -6
10 -15 6 -21 -3 -6 -1 -7 6 -3 6 4 18 0 27 -8 8 -9 22 -16 30 -16 16 0 18 -9
5 -28 -7 -11 -11 -11 -23 1 -17 18 -88 16 -133 -2 -20 -8 -31 -9 -33 -2 -2 6
-8 9 -13 5 -5 -3 -9 1 -9 8 0 7 -4 20 -10 28 -8 12 -11 12 -28 -3 -17 -16 -19
-15 -39 11 -31 42 -54 92 -48 102 3 6 2 10 -4 10 -5 0 -12 18 -16 39 -3 22
-14 46 -23 54 -16 14 -17 10 -17 -56 0 -57 -6 -84 -27 -129 -15 -32 -28 -58
-30 -58 -2 0 -2 16 0 35 6 48 -6 105 -21 102 -15 -3 -22 52 -8 66 13 13 14 37
2 37 -5 0 -12 -16 -15 -35 -6 -32 -9 -34 -22 -20 -12 11 -12 19 -4 35 12 22 5
44 -11 35 -5 -4 -9 4 -9 16 0 18 3 20 12 11 27 -27 35 -11 16 35 -6 15 -12 33
-13 38 0 6 -6 23 -13 38 -14 34 -31 28 -24 -8 5 -30 -7 -159 -16 -151 -12 13
-13 85 -1 174 6 51 15 90 20 85 4 -4 35 -46 69 -93z m-690 10 c0 -5 -2 -10 -4
-10 -3 0 -8 5 -11 10 -3 6 -1 10 4 10 6 0 11 -4 11 -10z m107 -52 c-3 -8 -6
-5 -6 6 -1 11 2 17 5 13 3 -3 4 -12 1 -19z m9 -75 c-10 -10 -19 5 -10 18 6 11
8 11 12 0 2 -7 1 -15 -2 -18z m-117 -36 c0 -21 -1 -21 -9 -2 -12 28 -12 37 0
30 6 -3 10 -16 9 -28z m-2 -74 c-3 -10 -5 -2 -5 17 0 19 2 27 5 18 2 -10 2
-26 0 -35z m13 -45 c0 -7 3 -24 7 -38 9 -36 -6 -19 -17 19 -5 19 -5 31 1 31 5
0 9 -6 9 -12z m19 -95 c0 -25 -1 -26 -9 -8 -12 27 -12 35 0 35 6 0 10 -12 9
-27z m88 -115 c-3 -8 -6 -5 -6 6 -1 11 2 17 5 13 3 -3 4 -12 1 -19z m1263 -8
c0 -5 -2 -10 -4 -10 -3 0 -8 5 -11 10 -3 6 -1 10 4 10 6 0 11 -4 11 -10z m100
-50 c0 -5 -2 -10 -4 -10 -3 0 -8 5 -11 10 -3 6 -1 10 4 10 6 0 11 -4 11 -10z
m118 -71 c58 -35 63 -40 35 -36 -24 4 -33 1 -33 -9 0 -8 10 -14 23 -14 24 0
123 -45 145 -66 14 -14 16 -34 4 -34 -4 0 -12 4 -18 10 -5 5 -27 11 -49 13
-25 2 -39 8 -37 15 1 7 -10 18 -25 25 -39 17 -71 49 -78 78 -3 14 -18 33 -33
42 -15 9 -21 17 -14 17 7 0 43 -18 80 -41z m212 -225 c0 -2 -7 -4 -15 -4 -8 0
-15 4 -15 10 0 5 7 7 15 4 8 -4 15 -8 15 -10z m29 -231 c2 -2 0 -3 -6 -3 -6 0
-21 9 -34 21 l-24 20 30 -17 c17 -10 32 -19 34 -21z m821 -343 c0 -5 -5 -10
-11 -10 -5 0 -7 5 -4 10 3 6 8 10 11 10 2 0 4 -4 4 -10z m-230 -62 c0 -4 -4
-8 -9 -8 -6 0 -12 4 -15 8 -3 5 1 9 9 9 8 0 15 -4 15 -9z m170 -12 c0 -3 -4
-8 -10 -11 -5 -3 -10 -1 -10 4 0 6 5 11 10 11 6 0 10 -2 10 -4z m-100 -36 c0
-5 -4 -10 -10 -10 -5 0 -10 5 -10 10 0 6 5 10 10 10 6 0 10 -4 10 -10z m-4677
-263 c54 -80 64 -183 29 -293 -6 -18 -6 -37 -1 -45 17 -28 10 -57 -16 -63 -21
-5 -25 -12 -25 -42 0 -28 -8 -43 -32 -66 -30 -28 -31 -31 -15 -43 9 -7 17 -15
17 -17 0 -12 -43 -16 -67 -7 -15 5 -31 5 -42 0 -9 -5 -22 -7 -27 -3 -15 10
-42 85 -36 101 2 8 0 11 -6 7 -6 -4 -8 12 -5 47 3 28 7 93 9 142 6 136 9 149
36 196 29 50 50 71 93 93 31 17 74 13 88 -7z m5052 -27 c3 -5 2 -10 -4 -10 -5
0 -13 5 -16 10 -3 6 -2 10 4 10 5 0 13 -4 16 -10z m-3075 -65 c-7 -14 -17 -25
-22 -25 -5 0 -1 14 7 31 9 17 19 28 22 25 4 -3 0 -17 -7 -31z m55 -4 c-3 -12
-10 -21 -15 -21 -5 0 -4 11 2 25 13 29 23 26 13 -4z m-3455 -55 c0 -16 -18
-31 -27 -22 -8 8 5 36 17 36 5 0 10 -6 10 -14z m-162 -438 c17 -17 15 -58 -2
-58 -7 0 -16 9 -19 20 -10 37 -50 20 -58 -25 -2 -11 -14 -24 -26 -30 -12 -5
-24 -17 -26 -27 -3 -10 -12 -18 -20 -18 -12 0 -15 8 -10 38 8 52 13 59 64 87
49 27 79 31 97 13z m2186 -333 c-4 -8 -10 -12 -15 -9 -14 8 -10 24 6 24 9 0
12 -6 9 -15z m-2384 -15 c0 -5 -4 -10 -10 -10 -5 0 -10 5 -10 10 0 6 5 10 10
10 6 0 10 -4 10 -10z m-3 -62 c-3 -8 -6 -5 -6 6 -1 11 2 17 5 13 3 -3 4 -12 1
-19z m6523 -35 c0 -10 -32 -43 -42 -43 -5 0 -1 11 8 25 15 23 34 33 34 18z
m-4190 -43 c0 -5 -7 -10 -15 -10 -8 0 -15 5 -15 10 0 6 7 10 15 10 8 0 15 -4
15 -10z m300 -80 c0 -5 -7 -10 -16 -10 -8 0 -12 5 -9 10 3 6 10 10 16 10 5 0
9 -4 9 -10z m-2603 -32 c-3 -8 -6 -5 -6 6 -1 11 2 17 5 13 3 -3 4 -12 1 -19z
m-76 -21 c-13 -13 -26 -3 -16 12 3 6 11 8 17 5 6 -4 6 -10 -1 -17z m9 -57 c0
-5 -7 -10 -16 -10 -8 0 -12 5 -9 10 3 6 10 10 16 10 5 0 9 -4 9 -10z m10 -64
c0 -11 -19 -15 -25 -6 -3 5 1 10 9 10 9 0 16 -2 16 -4z m0 -136 c0 -5 -4 -10
-10 -10 -5 0 -10 5 -10 10 0 6 5 10 10 10 6 0 10 -4 10 -10z m2110 -140 c0 -5
-4 -10 -10 -10 -5 0 -10 5 -10 10 0 6 5 10 10 10 6 0 10 -4 10 -10z m40 -1080
c0 -5 -6 -10 -14 -10 -8 0 -23 -3 -33 -6 -16 -5 -16 -4 1 10 22 18 46 21 46 6z
m-25 -130 c-3 -5 -12 -10 -20 -10 -8 0 -17 5 -20 10 -4 6 5 10 20 10 15 0 24
-4 20 -10z m-148 -136 c-3 -3 -12 -4 -19 -1 -8 3 -5 6 6 6 11 1 17 -2 13 -5z
m-2 -55 c0 -24 -5 -35 -17 -37 -14 -3 -18 4 -18 31 0 18 3 37 7 41 15 14 28
-2 28 -35z m-1 -111 c-4 -24 -13 -52 -20 -63 -13 -17 -14 -14 -14 36 0 58 4
69 27 69 10 0 12 -10 7 -42z m286 -139 c0 -6 -4 -7 -10 -4 -5 3 -10 11 -10 16
0 6 5 7 10 4 6 -3 10 -11 10 -16z"/>
<path d="M7180 5480 c0 -5 5 -10 10 -10 6 0 10 5 10 10 0 6 -4 10 -10 10 -5 0
-10 -4 -10 -10z"/>
<path d="M6372 8430 c-7 -12 -10 -25 -7 -30 8 -14 2 -12 -31 5 -26 13 -29 13
-32 0 -2 -8 -10 -15 -18 -15 -12 0 -14 -11 -12 -52 2 -44 7 -55 26 -63 12 -5
22 -13 22 -18 0 -4 -4 -6 -9 -2 -5 3 -3 -8 5 -25 9 -17 19 -28 24 -25 4 3 6
-4 3 -15 -5 -20 -5 -20 -34 1 -16 11 -31 24 -35 30 -4 6 -11 6 -20 -2 -11 -9
-17 -5 -28 22 l-14 33 0 -37 c0 -21 8 -54 18 -74 18 -39 16 -73 -5 -73 -18 0
-23 -36 -12 -80 11 -44 21 -56 24 -27 10 92 23 131 35 96 2 -6 20 1 42 16 21
14 45 24 53 21 20 -8 64 4 57 16 -3 5 1 17 8 26 29 34 30 42 4 42 -13 0 -31
-7 -39 -15 -13 -13 -17 -13 -28 1 -11 13 -10 15 6 12 31 -5 30 28 -1 44 -39
19 -44 41 -7 32 15 -4 30 -11 31 -16 2 -4 12 -8 22 -8 15 0 17 8 14 57 -2 38
-8 59 -18 65 -20 11 -21 39 -2 32 8 -3 16 3 19 15 3 12 -1 22 -9 25 -9 3 -14
-1 -14 -11 0 -15 -1 -15 -12 0 -12 16 -14 16 -26 -3z m33 -118 c-8 -8 -25 17
-25 38 0 9 6 6 16 -8 9 -13 13 -26 9 -30z m-126 -167 c11 -6 6 -25 -7 -25 -14
0 -32 40 -25 56 6 15 7 15 14 -3 4 -12 12 -24 18 -28z"/>
<path d="M6541 8294 c0 -11 3 -14 6 -6 3 7 2 16 -1 19 -3 4 -6 -2 -5 -13z"/>
<path d="M6280 8244 c0 -5 7 -19 15 -30 8 -10 15 -14 15 -8 0 5 -7 19 -15 30
-8 10 -15 14 -15 8z"/>
<path d="M6455 8240 c-3 -5 -15 -10 -26 -10 -10 0 -19 -4 -19 -10 0 -5 16 -10
35 -10 24 0 35 5 35 14 0 19 -17 29 -25 16z"/>
<path d="M4045 8195 c-13 -16 -37 -61 -54 -99 -17 -37 -60 -116 -95 -175 -36
-58 -69 -124 -74 -146 -10 -44 2 -91 29 -123 9 -10 24 -32 34 -49 9 -16 32
-35 50 -42 17 -6 37 -23 43 -36 7 -14 19 -28 27 -31 8 -4 15 -12 15 -20 0 -8
4 -13 9 -11 5 1 17 -7 25 -18 13 -16 15 -17 10 -2 -4 11 -1 17 10 17 9 0 16 7
16 16 0 10 6 13 19 9 12 -3 21 0 25 10 3 8 12 15 21 15 8 0 15 4 15 9 0 5 18
12 40 16 22 4 40 11 40 16 0 6 6 9 13 7 6 -1 35 3 62 9 28 6 62 11 78 12 37 1
73 26 92 64 19 38 19 51 0 43 -8 -3 -15 0 -15 6 0 7 -12 8 -32 4 -70 -14 -147
31 -225 132 -14 17 -30 32 -37 32 -35 0 -77 130 -56 170 16 31 25 146 11 154
-6 4 -11 16 -11 27 0 32 -57 22 -85 -16z m31 -232 c1 -43 3 -86 4 -97 2 -26
-3 -28 -37 -16 -40 14 -57 47 -44 83 6 15 17 27 25 27 13 0 30 34 27 54 -3 15
9 39 16 33 3 -4 7 -41 9 -84z m-36 -452 c0 -11 -3 -11 -14 -1 -8 6 -12 18 -9
27 5 12 7 12 14 1 5 -7 9 -19 9 -27z"/>
<path d="M6196 7908 c-6 -30 -8 -32 -21 -15 -18 24 -29 4 -13 -23 11 -18 10
-23 -4 -31 -24 -13 -23 -29 2 -29 11 0 20 5 20 10 0 6 7 10 15 10 15 0 85 60
85 73 0 5 -4 5 -10 2 -5 -3 -10 0 -10 7 0 10 -3 9 -10 -2 -7 -12 -12 -11 -28
8 l-19 22 -7 -32z"/>
<path d="M6344 7779 c-3 -6 -1 -16 5 -22 8 -8 11 -5 11 11 0 24 -5 28 -16 11z"/>
<path d="M6370 7781 c0 -5 5 -13 10 -16 6 -3 10 -2 10 4 0 5 -4 13 -10 16 -5
3 -10 2 -10 -4z"/>
<path d="M4644 7767 c-67 -22 -71 -47 -9 -47 25 0 62 -7 82 -15 44 -19 113
-19 138 -2 21 16 16 20 -47 44 -60 22 -130 31 -164 20z"/>
<path d="M3910 7496 c0 -22 16 -36 41 -36 13 0 11 34 -3 48 -20 20 -38 14 -38
-12z"/>
<path d="M3961 7451 c-6 -11 -11 -28 -12 -38 0 -11 -3 -13 -6 -5 -2 7 -13 17
-24 22 -17 9 -18 8 -13 -18 4 -20 1 -34 -10 -43 -42 -35 -68 -67 -88 -108
l-21 -44 31 -28 c16 -15 35 -37 41 -48 7 -11 24 -24 39 -27 15 -4 32 -11 39
-16 23 -19 35 -19 478 -14 371 4 509 14 595 41 41 14 94 29 118 35 42 11 58
30 24 30 -11 0 -45 -9 -78 -20 -55 -19 -74 -20 -259 -14 -110 4 -245 8 -300 8
-75 1 -117 8 -170 25 -38 13 -74 27 -79 32 -6 5 -39 9 -75 9 -113 0 -134 7
-159 50 -12 22 -22 46 -22 55 0 12 -6 15 -22 10 -17 -6 -20 -4 -15 9 4 9 2 16
-3 16 -6 0 -10 11 -10 25 0 15 6 25 14 25 22 0 26 13 11 33 -13 18 -14 18 -24
-2z"/>
<path d="M4004 6964 c4 -21 13 -46 19 -54 28 -36 36 -57 24 -69 -8 -8 -7 -11
3 -11 7 0 35 -18 61 -40 57 -48 73 -55 167 -71 62 -11 75 -10 82 1 7 12 10 11
16 -3 11 -30 26 -19 19 16 -3 17 -3 27 2 21 4 -6 16 -13 26 -17 10 -4 15 -11
12 -17 -3 -5 4 -10 17 -10 13 0 34 -1 48 -3 63 -10 60 50 -3 75 -23 10 -53 19
-67 21 -14 2 -33 7 -43 12 -10 4 -23 3 -28 -2 -12 -12 -75 3 -100 24 -8 7 -22
13 -29 13 -21 0 -114 47 -132 67 -8 10 -19 28 -22 39 -4 12 -14 24 -24 27 -9
3 -26 8 -36 12 -17 8 -18 5 -12 -31z m316 -184 c0 -5 -2 -10 -4 -10 -3 0 -8 5
-11 10 -3 6 -1 10 4 10 6 0 11 -4 11 -10z m45 -10 c3 -5 1 -10 -4 -10 -6 0
-11 5 -11 10 0 6 2 10 4 10 3 0 8 -4 11 -10z"/>
<path d="M4560 6715 c0 -8 9 -15 20 -15 11 0 20 2 20 5 0 2 -9 9 -20 15 -16 9
-20 8 -20 -5z"/>
<path d="M4411 6646 c11 -9 69 -14 69 -6 0 6 -16 10 -37 10 -20 0 -34 -2 -32
-4z"/>
<path d="M3850 6610 c0 -5 5 -10 10 -10 6 0 10 5 10 10 0 6 -4 10 -10 10 -5 0
-10 -4 -10 -10z"/>
<path d="M5677 6590 c-3 -11 -2 -22 3 -25 4 -3 10 4 13 15 3 11 2 22 -3 25 -4
3 -10 -4 -13 -15z"/>
<path d="M5610 6569 c0 -5 5 -7 10 -4 6 3 10 8 10 11 0 2 -4 4 -10 4 -5 0 -10
-5 -10 -11z"/>
<path d="M4210 6129 c0 -5 5 -7 10 -4 6 3 10 8 10 11 0 2 -4 4 -10 4 -5 0 -10
-5 -10 -11z"/>
<path d="M4567 5573 c-4 -3 -7 -11 -7 -17 0 -6 5 -5 12 2 6 6 9 14 7 17 -3 3
-9 2 -12 -2z"/>
<path d="M4315 5060 c-3 -5 1 -10 9 -10 9 0 16 5 16 10 0 6 -4 10 -9 10 -6 0
-13 -4 -16 -10z"/>
<path d="M4510 4825 c0 -8 7 -15 15 -15 8 0 15 7 15 15 0 8 -7 15 -15 15 -8 0
-15 -7 -15 -15z"/>
<path d="M4530 4781 c0 -5 5 -13 10 -16 6 -3 10 -2 10 4 0 5 -4 13 -10 16 -5
3 -10 2 -10 -4z"/>
<path d="M8700 4586 c0 -8 -2 -20 -5 -28 -3 -7 -1 -20 5 -28 7 -12 12 -12 21
-3 8 8 16 9 24 3 8 -7 21 -3 39 11 29 23 28 31 -7 36 -12 2 -26 8 -31 13 -15
15 -46 12 -46 -4z"/>
<path d="M8650 4565 c0 -10 7 -15 18 -13 21 4 19 22 -2 26 -10 2 -16 -3 -16
-13z"/>
<path d="M8816 4563 c-3 -3 -6 -12 -6 -19 0 -10 14 -13 45 -12 44 2 66 18 24
18 -11 0 -28 4 -38 10 -10 5 -21 6 -25 3z"/>
<path d="M8858 4453 c7 -3 16 -2 19 1 4 3 -2 6 -13 5 -11 0 -14 -3 -6 -6z"/>
<path d="M9105 4381 c-3 -5 -1 -12 5 -16 5 -3 10 1 10 9 0 18 -6 21 -15 7z"/>
<path d="M9062 4249 c-26 -10 -25 -32 3 -37 11 -3 15 0 10 7 -4 7 -1 18 5 26
14 17 14 17 -18 4z"/>
<path d="M9100 4240 c0 -5 5 -10 10 -10 6 0 10 5 10 10 0 6 -4 10 -10 10 -5 0
-10 -4 -10 -10z"/>
<path d="M8992 4201 c-10 -6 -8 -10 8 -14 26 -7 52 1 44 14 -7 11 -35 11 -52
0z"/>
<path d="M9015 4130 c-3 -5 1 -10 9 -10 9 0 16 5 16 10 0 6 -4 10 -9 10 -6 0
-13 -4 -16 -10z"/>
</g>
</svg>
