<?xml version="1.0" standalone="no"?>
<!DOCTYPE svg PUBLIC "-//W3C//DTD SVG 20010904//EN"
 "http://www.w3.org/TR/2001/REC-SVG-20010904/DTD/svg10.dtd">
<svg version="1.0" xmlns="http://www.w3.org/2000/svg"
 width="721.000000pt" height="721.000000pt" viewBox="0 0 721.000000 721.000000"
 preserveAspectRatio="xMidYMid meet">
<metadata>
Created by potrace 1.14, written by Peter Selinger 2001-2017
</metadata>
<g transform="translate(0.000000,721.000000) scale(0.100000,-0.100000)"
fill="#000000" stroke="none">
<path d="M3285 7193 c-61 -4 -212 -22 -241 -29 -19 -5 -23 -21 -43 -167 -19
-135 -27 -169 -50 -207 -30 -49 -54 -110 -47 -118 5 -4 42 31 67 63 8 11 29
34 48 50 l33 30 -7 -27 c-9 -35 2 -35 45 1 19 15 44 31 55 34 11 4 32 18 47
31 28 27 138 51 124 27 -4 -6 -13 -11 -21 -11 -7 0 -16 -8 -19 -18 -4 -10 -24
-26 -45 -35 -48 -22 -95 -63 -80 -73 6 -3 19 3 30 15 30 32 43 15 19 -25 l-21
-34 24 -11 c37 -17 30 -70 -15 -112 -19 -18 -59 -70 -89 -117 -57 -90 -58 -91
-89 -129 l-20 -24 0 26 c0 14 -4 29 -10 32 -5 3 -10 1 -10 -5 0 -13 -25 -40
-36 -40 -4 0 1 9 10 19 11 12 13 21 7 25 -10 7 -61 -53 -61 -71 0 -6 -7 -16
-15 -23 -12 -10 -15 -9 -15 6 -1 37 -72 -62 -100 -140 -7 -18 -15 -26 -25 -22
-9 3 -28 -11 -51 -37 -20 -23 -34 -35 -31 -25 8 21 -3 31 -20 17 -10 -9 -13
-8 -13 2 0 8 -13 -11 -28 -41 -19 -39 -33 -55 -48 -56 -17 0 -21 7 -23 40 -2
47 -7 54 -23 38 -7 -7 -20 -12 -30 -12 -10 0 -18 -4 -18 -10 0 -5 -6 -7 -13
-4 -13 5 -37 -33 -37 -59 -1 -22 -29 -50 -44 -44 -14 5 -14 12 -1 54 8 26 13
48 11 50 -3 3 -53 -56 -98 -116 -41 -55 -79 -129 -69 -136 6 -3 18 8 27 25 10
16 21 30 24 31 3 0 24 2 47 4 23 2 48 7 55 11 7 5 21 10 32 11 17 3 17 1 -3
-33 -17 -29 -19 -39 -10 -48 9 -8 10 -8 5 2 -4 7 0 15 11 19 10 4 24 13 32 21
7 7 20 11 27 8 8 -3 14 0 14 6 0 6 3 8 7 5 3 -4 -10 -22 -29 -41 -20 -19 -39
-32 -42 -29 -3 4 -6 2 -6 -4 0 -18 -78 -53 -115 -53 -26 0 -51 -12 -96 -45
-34 -25 -67 -45 -74 -45 -8 0 -27 -17 -45 -37 -25 -31 -32 -35 -40 -23 -5 9
-5 19 1 26 7 8 6 14 -1 19 -6 3 -8 11 -5 16 7 10 -24 1 -42 -14 -7 -5 -11 -23
-9 -40 3 -30 -13 -87 -25 -87 -3 0 -4 12 -2 28 3 22 2 24 -6 10 -6 -9 -24 -19
-40 -23 -18 -4 -32 -15 -36 -28 -22 -67 -32 -112 -28 -124 3 -7 0 -13 -6 -13
-7 0 -16 10 -21 23 -5 12 -9 20 -10 17 -1 -3 -3 -14 -5 -25 -9 -49 -26 -63
-67 -59 -22 2 -44 6 -49 9 -11 7 -7 -88 4 -96 4 -3 1 -11 -7 -18 -13 -11 -23
-5 -61 35 -29 29 -50 43 -55 38 -13 -13 6 -67 42 -121 16 -23 28 -44 28 -47 0
-7 60 -96 78 -114 16 -18 15 -37 -3 -52 -11 -9 -19 -10 -28 -1 -10 8 -19 4
-36 -19 -12 -17 -30 -30 -41 -30 -10 0 -22 -4 -25 -10 -3 -5 -14 -10 -24 -10
-10 0 -32 -7 -47 -15 -16 -8 -39 -15 -51 -15 -22 0 -53 -24 -53 -40 0 -5 10
-12 22 -16 41 -13 49 -29 25 -51 -30 -27 -188 -104 -199 -97 -13 8 0 76 23
120 12 25 16 41 9 48 -14 14 -12 26 4 26 21 0 36 23 26 40 -7 12 -11 10 -18
-10 l-9 -24 -18 22 c-12 13 -23 18 -29 12 -6 -4 -15 -10 -21 -12 -5 -1 -9 -9
-7 -16 3 -11 -1 -11 -18 -2 -25 13 -42 4 -20 -11 11 -8 12 -12 2 -16 -6 -2 -9
-10 -5 -16 4 -7 8 -26 9 -44 1 -28 0 -30 -13 -18 -26 26 -32 16 -28 -44 3 -52
2 -59 -13 -54 -10 4 -12 8 -4 11 16 5 5 22 -13 22 -15 0 -15 -45 -1 -68 3 -6
1 -12 -5 -14 -9 -3 -9 -9 0 -26 10 -18 15 -20 37 -12 33 13 26 1 -48 -76 -33
-33 -67 -71 -76 -85 -170 -252 -231 -385 -322 -702 -16 -55 -35 -104 -41 -108
-7 -4 -9 -19 -7 -34 4 -17 0 -32 -12 -43 -19 -19 -35 -56 -20 -47 20 12 9 -25
-13 -47 -18 -18 -23 -34 -23 -68 1 -57 -12 -75 -36 -47 -22 25 -23 45 -2 69
13 13 14 21 5 32 -9 10 -7 24 8 58 l19 44 -27 -2 c-14 -1 -30 -2 -35 -3 -4 0
-6 -17 -4 -36 3 -25 0 -35 -10 -35 -7 0 -11 -4 -8 -9 4 -5 0 -11 -6 -14 -7 -2
-13 -19 -13 -38 0 -28 -4 -34 -20 -33 -16 0 -20 -6 -19 -31 1 -18 4 -37 8 -43
5 -8 -4 -12 -28 -12 -19 0 -36 5 -38 12 -3 7 -7 5 -11 -6 -4 -9 -3 -15 2 -12
11 7 31 -47 31 -82 0 -20 -2 -22 -15 -12 -8 6 -23 9 -35 5 l-20 -6 21 -30 c25
-35 19 -59 -15 -59 -17 0 -25 -7 -28 -25 -3 -14 -2 -25 2 -25 4 0 10 -9 13
-20 3 -11 1 -20 -4 -20 -5 0 -9 4 -9 9 0 16 -44 17 -58 1 -12 -13 -13 -13 -9
1 3 8 -4 21 -14 27 -12 8 -19 8 -19 2 0 -5 4 -10 10 -10 5 0 7 -6 4 -14 -5
-14 22 -30 36 -21 4 3 10 -3 13 -13 3 -9 10 -31 15 -47 l9 -30 -41 2 c-22 2
-35 0 -28 -3 6 -3 10 -10 7 -15 -3 -4 1 -22 10 -38 8 -17 11 -32 6 -35 -5 -4
-11 -2 -13 3 -2 5 -13 5 -25 0 -20 -7 -21 -11 -10 -41 7 -18 15 -35 19 -38 4
-3 3 -12 -2 -20 -7 -11 -12 -12 -20 -4 -7 7 -20 10 -30 7 -17 -5 -17 -8 2 -76
112 -394 308 -791 561 -1130 423 -569 1002 -999 1673 -1242 54 -20 103 -34
110 -31 32 12 45 427 19 636 -7 58 -12 164 -10 235 2 162 -12 228 -88 385 -78
164 -113 279 -148 489 -10 62 -20 115 -21 116 -2 1 -21 8 -43 16 -60 22 -80
67 -99 225 -17 144 -40 227 -91 337 -39 87 -75 203 -105 347 -13 58 -29 120
-36 139 -8 18 -14 58 -14 88 0 40 -10 77 -39 146 -21 51 -53 131 -70 179 -52
149 -111 241 -159 251 -34 7 -46 30 -67 134 -31 149 -22 178 64 209 66 25 72
33 72 102 0 34 5 64 10 68 5 3 7 15 4 26 -4 12 0 27 11 39 15 17 18 36 16 109
-1 50 3 92 8 95 6 4 10 -14 10 -45 0 -32 4 -49 10 -45 6 3 10 14 10 24 0 29
36 68 50 55 9 -9 9 -18 0 -35 -7 -14 6 -4 30 21 39 43 41 44 37 18 l-4 -28 25
25 c13 14 27 25 31 25 3 0 6 20 6 44 0 28 11 63 31 102 17 32 34 73 38 89 4
17 18 53 30 80 13 28 38 86 56 130 58 144 107 242 161 322 130 195 316 376
429 421 43 17 170 24 187 10 6 -5 47 -12 90 -15 43 -3 80 -10 83 -14 3 -5 28
-11 55 -14 27 -4 55 -10 61 -16 6 -5 13 -6 17 -3 3 3 30 -1 60 -10 70 -20 124
-28 213 -30 43 -1 78 -7 88 -15 10 -8 16 -9 16 -3 0 7 10 6 27 -3 15 -8 40
-12 56 -9 18 3 26 1 22 -6 -3 -5 -1 -10 4 -10 6 0 11 6 11 13 0 9 2 9 9 -1 7
-11 52 -22 99 -25 6 0 12 -4 12 -9 0 -5 4 -7 9 -4 5 4 12 0 14 -6 4 -10 6 -10
6 0 1 6 14 12 29 12 15 0 33 5 40 12 9 9 12 9 12 -1 0 -7 4 -10 9 -6 5 3 12 1
16 -5 4 -6 12 -5 21 4 8 8 24 13 37 10 52 -12 81 -8 73 11 -3 9 0 15 9 15 8 0
15 5 15 10 0 18 20 11 20 -7 1 -16 2 -16 16 2 12 17 16 17 24 6 7 -12 11 -13
25 -1 13 10 13 15 3 21 -7 5 4 6 25 2 24 -4 37 -2 37 6 0 6 3 10 8 10 4 -1 9
0 12 1 3 1 19 4 35 5 17 2 45 6 63 8 19 3 32 0 32 -7 0 -7 3 -6 8 2 5 8 16 10
27 6 14 -6 16 -4 11 7 -4 8 2 3 13 -11 11 -14 21 -19 21 -12 0 9 5 10 18 4 9
-5 23 -7 29 -5 7 3 16 -2 19 -11 3 -9 12 -16 20 -16 8 0 14 -4 14 -9 0 -4 10
-7 23 -6 12 1 31 -1 42 -6 11 -4 14 -8 8 -8 -7 -1 -13 -6 -13 -12 0 -6 8 -8
19 -4 10 3 25 -1 33 -8 7 -8 24 -12 36 -11 15 3 22 -1 22 -12 0 -11 6 -15 20
-11 12 3 20 0 20 -7 0 -6 17 -19 38 -29 44 -21 112 -61 129 -76 7 -6 19 -11
26 -11 8 0 20 -7 27 -15 7 -9 18 -14 25 -12 6 3 35 -20 65 -50 30 -31 69 -66
87 -80 19 -15 42 -49 59 -88 15 -36 31 -65 36 -65 4 0 8 -9 8 -19 0 -11 5 -23
10 -26 6 -4 8 -11 5 -16 -4 -5 -2 -9 3 -9 5 0 9 -18 10 -40 1 -22 13 -63 27
-90 26 -52 32 -75 15 -65 -16 10 -12 -1 17 -50 30 -48 61 -68 137 -85 55 -12
83 -39 91 -90 6 -30 41 -155 65 -230 4 -14 14 -65 20 -115 7 -49 21 -109 31
-132 14 -33 18 -63 15 -126 -1 -46 -5 -88 -9 -94 -4 -6 -20 -16 -36 -21 l-29
-10 0 50 c-1 27 -5 55 -10 61 -5 7 -12 25 -16 42 -11 46 -83 187 -112 220 -14
17 -23 25 -20 18 3 -6 1 -13 -5 -15 -18 -6 -12 -349 6 -367 16 -16 65 -24 65
-10 0 5 5 9 11 9 16 0 39 -27 39 -46 0 -16 1 -16 14 2 23 30 39 6 21 -30 -9
-16 -13 -37 -10 -46 3 -11 -1 -20 -11 -24 -15 -6 -15 -8 1 -32 9 -14 14 -28
11 -31 -3 -3 2 -12 10 -21 11 -11 18 -12 27 -3 6 6 31 11 55 11 54 0 105 -29
121 -68 6 -16 12 -109 13 -227 l2 -200 -38 -115 c-42 -130 -56 -221 -57 -365
-1 -127 -12 -174 -56 -225 -40 -47 -90 -75 -151 -85 -24 -4 -45 -12 -47 -18
-3 -7 -7 -93 -9 -192 -6 -200 -14 -270 -46 -395 -21 -83 -98 -254 -145 -324
-42 -62 -46 -74 -50 -179 -5 -103 -8 -133 -45 -482 -23 -216 -37 -475 -26
-475 18 0 237 119 351 190 789 494 1356 1274 1584 2177 35 139 75 359 93 518
19 163 16 590 -5 745 -23 168 -25 176 -45 178 -30 2 -62 -8 -62 -19 0 -6 4 -7
10 -4 5 3 10 2 10 -3 0 -6 -11 -9 -25 -8 -14 0 -25 7 -25 14 0 11 -13 16 -25
10 -2 -2 -12 7 -21 20 -8 12 -21 22 -27 21 -20 -4 -67 23 -67 38 0 7 -7 13
-15 13 -23 0 -28 2 -49 22 -11 10 -26 18 -33 18 -7 0 -13 7 -13 15 0 9 -6 18
-14 21 -16 6 -11 33 8 47 7 5 3 7 -9 5 -11 -2 -24 -8 -30 -13 -5 -6 -9 -8 -8
-6 2 2 -3 11 -10 19 -10 13 -9 15 4 10 9 -4 26 0 38 8 14 10 21 11 21 3 0 -6
8 -9 20 -6 11 3 20 0 20 -5 0 -6 6 -5 15 2 8 7 15 8 15 3 0 -5 34 -19 75 -32
41 -13 75 -27 75 -30 0 -4 12 -12 28 -19 33 -15 65 -34 85 -50 13 -11 13 -4 0
65 -101 544 -384 1132 -761 1586 -95 114 -258 284 -346 360 l-70 60 -20 -25
c-12 -14 -50 -69 -86 -122 -36 -53 -76 -112 -90 -130 -14 -19 -43 -60 -65 -91
-22 -32 -72 -101 -111 -154 -39 -53 -73 -104 -77 -113 -3 -10 -11 -18 -16 -18
-19 0 -19 30 0 53 10 14 19 29 19 34 0 4 -5 1 -10 -7 -7 -11 -10 -12 -10 -2 0
9 -7 11 -19 7 -11 -3 -22 -2 -25 3 -3 5 -16 7 -29 5 -14 -3 -31 2 -40 11 -11
11 -17 12 -19 4 -3 -8 -13 -6 -31 8 -32 23 -34 34 -7 34 11 0 23 7 26 15 4 8
10 12 15 9 5 -3 9 4 9 15 0 25 -17 36 -34 22 -9 -8 -23 -5 -50 8 -21 11 -31
21 -24 24 10 4 10 6 0 6 -7 1 -21 8 -30 17 -15 15 -14 16 7 9 18 -5 22 -4 16
6 -6 11 -5 12 6 2 7 -7 20 -13 28 -12 11 0 12 2 3 6 -10 4 -10 8 0 21 12 15
11 16 -4 3 -16 -12 -19 -10 -26 10 -9 22 -9 22 -29 2 -11 -11 -28 -19 -37 -17
-22 3 -23 4 -28 28 -1 11 -13 30 -25 42 -13 13 -23 28 -23 34 0 5 -6 10 -14
10 -8 0 -24 14 -37 31 -13 17 -31 39 -40 49 -10 10 -17 35 -17 60 -1 23 -3 45
-6 48 -3 3 2 11 12 19 16 12 16 13 -1 7 -12 -4 -27 5 -50 29 -17 19 -48 46
-68 61 -19 14 -41 37 -49 51 -7 14 -22 25 -32 25 -10 0 -18 4 -18 8 0 5 -11
15 -25 22 -13 7 -22 16 -20 20 3 4 -4 15 -15 25 -11 10 -20 15 -20 10 0 -4 -8
2 -17 14 -10 12 -28 23 -40 24 -12 0 -19 5 -17 9 3 4 -1 8 -9 8 -7 0 -19 16
-27 35 -8 21 -17 31 -21 24 -5 -8 -14 -5 -30 10 -12 11 -25 21 -28 22 -56 7
-74 17 -68 38 4 16 -1 18 -36 16 -27 -2 -45 3 -58 16 -9 9 -20 14 -24 11 -3
-4 -9 -2 -13 3 -4 6 -25 16 -47 24 -22 8 -50 23 -62 35 -12 12 -24 20 -28 18
-9 -4 -65 28 -65 38 0 6 -11 15 -24 22 -14 6 -26 20 -28 31 -2 11 -10 22 -18
23 -8 2 -33 8 -55 14 -49 14 -65 15 -88 5 -16 -7 -17 -2 -15 43 2 27 6 48 11
45 7 -4 8 -2 12 32 1 12 8 31 14 44 7 12 10 26 6 29 -4 4 -49 9 -100 10 l-94
4 -11 -44 c-13 -46 -52 -119 -75 -138 -10 -8 -23 -9 -42 -3 -21 7 -31 5 -47
-11 -12 -12 -21 -15 -23 -9 -2 6 -16 9 -29 7 -16 -3 -23 -1 -19 6 4 6 -5 10
-20 10 -14 0 -24 4 -20 9 3 6 -7 6 -27 0 -18 -5 -34 -9 -35 -9 -1 0 0 7 3 15
5 11 2 13 -11 9 -15 -6 -16 -3 -9 17 4 13 7 36 6 52 -1 16 4 27 12 27 8 0 11
10 8 30 -5 33 2 32 -127 23z m455 -133 c0 -5 -9 -14 -21 -20 -19 -11 -20 -10
-9 9 11 22 30 29 30 11z m-1400 -1157 c0 -1 -13 -17 -30 -35 -23 -25 -30 -28
-30 -15 0 30 17 53 39 53 12 0 21 -1 21 -3z m-1100 -1077 c0 -2 -7 -6 -15 -10
-8 -3 -15 -1 -15 4 0 6 7 10 15 10 8 0 15 -2 15 -4z m285 -156 c-3 -5 -12 -10
-18 -10 -7 0 -6 4 3 10 19 12 23 12 15 0z m69 -157 c-5 14 0 17 25 17 17 0 31
-5 31 -11 0 -5 -4 -8 -9 -4 -10 6 -16 -9 -26 -66 -8 -45 10 -61 27 -25 14 33
28 33 28 1 0 -14 -3 -25 -8 -25 -10 0 -44 -79 -37 -90 3 -4 -2 -11 -10 -14
-20 -7 -37 33 -23 52 8 9 6 12 -6 12 -9 0 -16 4 -16 9 0 5 -9 13 -21 16 -18 6
-20 12 -14 48 4 23 14 54 23 69 14 25 17 25 29 10 12 -16 13 -16 7 1z m5269
-80 c-7 -2 -19 -2 -25 0 -7 3 -2 5 12 5 14 0 19 -2 13 -5z m254 -295 c-3 -8
-6 -5 -6 6 -1 11 2 17 5 13 3 -3 4 -12 1 -19z m-6589 -933 c-1 -21 -7 -35 -15
-35 -8 0 -13 13 -13 35 0 25 4 35 15 35 12 0 15 -9 13 -35z"/>
<path d="M2305 6019 c-4 -6 -5 -12 -2 -15 2 -3 7 2 10 11 7 17 1 20 -8 4z"/>
<path d="M5380 5864 c0 -8 5 -12 10 -9 6 3 10 10 10 16 0 5 -4 9 -10 9 -5 0
-10 -7 -10 -16z"/>
<path d="M5416 5871 c-3 -5 1 -11 9 -15 9 -3 15 0 15 9 0 16 -16 20 -24 6z"/>
<path d="M5516 5823 c-6 -14 -5 -15 5 -6 7 7 10 15 7 18 -3 3 -9 -2 -12 -12z"/>
<path d="M1190 4890 c19 -13 30 -13 30 0 0 6 -10 10 -22 10 -19 0 -20 -2 -8
-10z"/>
<path d="M4655 4603 c-296 -25 -634 -141 -768 -263 -77 -70 -102 -130 -94
-230 4 -41 15 -106 26 -145 40 -147 60 -176 99 -142 15 13 146 77 158 77 5 0
14 7 57 45 46 41 58 30 36 -35 -9 -25 -9 -34 0 -40 9 -5 -18 -43 -84 -120
-106 -123 -113 -145 -55 -175 40 -21 50 -19 50 10 0 13 10 40 23 59 12 19 35
56 50 83 15 26 34 59 43 73 8 14 19 38 24 53 17 49 32 21 25 -47 -3 -33 -9
-70 -12 -80 -5 -17 -1 -18 43 -13 l49 7 -40 -38 c-22 -20 -46 -49 -54 -64 -7
-14 -24 -32 -38 -39 -13 -7 -29 -21 -34 -31 -6 -10 -14 -16 -18 -13 -5 2 -14
-2 -21 -10 -10 -12 -8 -18 11 -35 86 -70 297 -140 423 -140 58 0 69 11 53 50
-3 8 -7 29 -9 45 -2 17 -9 31 -15 31 -7 1 -20 2 -28 3 -8 0 -18 13 -21 29 -4
15 -13 35 -21 44 -22 25 -7 38 43 38 39 0 44 -3 44 -23 0 -12 -9 -28 -20 -35
-27 -17 -26 -34 3 -23 21 7 95 6 103 -2 12 -12 9 -58 -7 -94 -10 -23 -15 -45
-10 -47 18 -11 143 4 226 28 186 54 310 134 362 232 49 93 58 153 58 394 0
198 -2 221 -24 290 -29 93 -44 123 -89 179 -43 53 -129 96 -222 110 -60 10
-233 12 -325 4z m45 -187 c0 -18 -49 -58 -61 -50 -14 8 -11 22 11 44 23 23 50
26 50 6z m-200 -167 c-12 -16 -25 -28 -27 -25 -8 8 25 56 38 56 6 0 1 -14 -11
-31z m712 -56 c25 -30 16 -47 -27 -54 -47 -8 -55 -5 -55 21 0 43 54 65 82 33z
m-772 -127 c-9 -24 -28 -42 -36 -34 -2 3 4 26 13 53 14 43 17 46 24 27 5 -12
4 -33 -1 -46z m-135 -43 c-7 -29 -21 -43 -42 -43 -18 0 -16 21 3 48 23 33 48
29 39 -5z m920 -3 c-3 -5 -13 -10 -21 -10 -8 0 -12 5 -9 10 3 6 13 10 21 10 8
0 12 -4 9 -10z m-54 -149 c-6 -10 -19 -21 -29 -23 -15 -4 -19 0 -19 18 0 20 5
24 29 24 25 0 27 -2 19 -19z m-531 -175 c0 -7 7 -19 15 -26 23 -19 18 -47 -9
-52 -13 -3 -54 -6 -91 -7 -106 -3 -185 45 -143 87 18 18 228 17 228 -2z m190
-1 c0 -2 -13 -11 -30 -20 -31 -16 -43 -3 -12 14 18 11 42 14 42 6z"/>
<path d="M5353 4563 c-32 -6 -28 -20 7 -28 19 -4 36 -2 45 5 32 26 11 35 -52
23z"/>
<path d="M2503 4233 c-27 -10 -11 -18 28 -15 28 3 37 7 28 13 -15 9 -37 10
-56 2z"/>
<path d="M2716 4231 c-3 -5 1 -11 9 -14 9 -4 12 -1 8 9 -6 16 -10 17 -17 5z"/>
<path d="M2750 4228 c0 -4 10 -9 23 -10 47 -3 52 -4 50 -16 -2 -7 2 -12 7 -12
6 0 10 -5 10 -11 0 -6 -7 -9 -15 -5 -13 5 -20 -5 -16 -26 0 -5 -6 -8 -15 -8
-8 0 -12 -4 -9 -10 3 -5 15 -10 25 -10 20 0 21 -23 2 -42 -9 -9 -12 -9 -12 3
-1 21 -20 -15 -26 -49 -6 -32 -40 -66 -56 -56 -8 5 -9 -1 -4 -20 7 -29 -14
-71 -30 -58 -4 4 -2 -1 5 -10 11 -15 11 -18 -1 -18 -8 0 -23 -9 -33 -20 -10
-11 -20 -18 -23 -16 -2 3 -16 -6 -31 -20 -14 -13 -33 -24 -41 -23 -22 2 -60
-12 -60 -22 0 -5 -9 -9 -20 -9 -11 0 -20 -7 -20 -15 0 -9 -6 -15 -12 -14 -23
3 -41 -1 -35 -7 8 -8 -35 -49 -53 -49 -8 0 -14 -8 -14 -18 1 -9 -2 -17 -7 -17
-5 0 -9 9 -9 21 0 11 -5 17 -10 14 -6 -4 -7 -12 -4 -18 5 -8 3 -8 -7 1 -16 15
-49 16 -49 1 0 -6 -9 -8 -21 -4 -13 5 -19 3 -15 -3 3 -5 -1 -13 -10 -16 -9 -4
-13 -2 -8 5 11 19 -39 -1 -58 -22 -22 -26 -80 -47 -86 -31 -2 7 -12 12 -23 12
-11 0 -22 6 -25 14 -3 8 -13 12 -25 9 -10 -3 -19 0 -19 6 0 6 -5 11 -11 11 -5
0 -7 -6 -3 -12 4 -8 3 -10 -2 -5 -11 11 -13 57 -2 57 4 0 8 5 8 10 0 6 -8 5
-20 -2 -17 -11 -22 -10 -30 2 -12 18 -14 40 -2 25 4 -5 13 -11 21 -13 10 -2
12 4 7 23 -4 17 -3 24 6 23 8 -2 12 6 10 22 -2 20 -1 22 7 10 9 -12 11 -9 11
13 0 18 -4 26 -11 21 -7 -4 -7 1 1 16 6 12 9 28 6 36 -3 9 -1 12 4 9 15 -10
12 14 -7 46 -18 30 -40 41 -30 15 4 -9 -2 -17 -14 -21 -10 -4 -19 -11 -19 -17
0 -6 -3 -9 -6 -5 -15 15 103 151 206 238 l35 29 -41 -14 c-235 -80 -326 -232
-285 -472 28 -160 136 -433 200 -506 40 -46 108 -86 175 -104 111 -30 414 -25
452 7 6 5 14 5 18 1 9 -8 36 26 36 46 0 12 -3 12 -16 2 -13 -12 -14 -10 -3 16
7 16 18 36 23 44 6 8 0 6 -13 -5 l-24 -20 12 22 c6 12 10 28 9 35 -2 7 2 12 7
11 6 -1 11 7 11 17 0 18 -1 18 -20 2 -19 -17 -19 -17 -1 10 9 15 21 26 25 23
4 -3 13 2 20 10 7 8 18 15 25 15 8 0 15 4 17 9 3 9 53 70 112 136 15 17 4 -7
-25 -55 -83 -135 -94 -154 -82 -147 6 4 46 60 89 125 43 64 90 133 105 152 39
52 72 110 62 110 -5 0 -21 -19 -36 -42 -34 -53 -92 -121 -78 -91 8 16 8 23 -2
26 -9 4 -8 8 3 16 8 5 18 7 22 5 4 -3 5 1 2 9 -3 8 10 31 30 52 20 21 36 42
36 46 0 5 4 9 8 9 4 0 8 8 9 18 2 34 83 224 100 237 10 7 20 12 22 10 6 -6
-49 -176 -71 -218 l-19 -38 22 12 c20 10 21 9 15 -12 -17 -56 -15 -69 10 -69
48 0 21 -43 -63 -101 -63 -43 -78 -64 -140 -187 -29 -57 -62 -116 -73 -132
-11 -15 -20 -33 -20 -39 0 -6 -5 -11 -12 -11 -6 0 -8 -3 -5 -6 16 -16 163 67
172 97 4 11 12 19 20 19 22 0 111 108 150 182 51 97 85 239 86 363 2 250 -59
368 -217 419 -54 18 -244 36 -244 24z m238 -445 c-6 -16 -11 -38 -12 -50 -1
-14 -77 -98 -216 -240 -119 -120 -236 -245 -262 -278 -52 -68 -104 -119 -132
-129 -17 -6 -16 -3 4 31 l22 38 -27 -25 c-15 -14 -35 -24 -46 -22 -10 2 -19
-1 -19 -7 0 -6 -7 -8 -16 -4 -13 5 -13 8 -2 15 9 7 7 8 -7 3 -46 -17 -64 -16
-83 3 -11 11 -24 17 -27 14 -4 -4 -1 7 8 23 16 32 123 145 137 145 5 0 10 4
12 8 2 4 37 30 78 57 41 27 84 59 95 70 34 36 177 145 190 145 3 0 19 16 37
35 18 19 74 57 123 85 50 29 100 65 113 81 29 37 45 38 30 2z m-583 -253 c-9
-15 -45 -32 -45 -22 0 5 10 14 23 20 29 14 29 14 22 2z m-105 -104 c0 -3 -4
-8 -10 -11 -5 -3 -10 -1 -10 4 0 6 5 11 10 11 6 0 10 -2 10 -4z m-46 -37 c-15
-17 -104 -91 -182 -152 -21 -17 -26 2 -6 24 23 26 163 133 184 142 24 9 24 8
4 -14z m-86 -3 c-7 -8 -16 -12 -21 -9 -11 7 2 23 19 23 12 0 12 -2 2 -14z
m-34 -25 c3 -5 -3 -11 -14 -14 -20 -5 -26 3 -13 16 9 10 21 9 27 -2z m586 -62
c-7 -11 -14 -18 -17 -15 -3 3 0 12 7 21 18 21 23 19 10 -6z"/>
<path d="M2637 3426 c-4 -10 -1 -13 9 -9 7 3 14 9 14 14 0 14 -17 10 -23 -5z"/>
<path d="M2540 3322 c-77 -81 -102 -114 -50 -67 77 70 128 125 114 125 -5 0
-34 -26 -64 -58z"/>
<path d="M2460 3320 c0 -5 7 -10 15 -10 8 0 15 5 15 10 0 6 -7 10 -15 10 -8 0
-15 -4 -15 -10z"/>
<path d="M7129 4213 c-13 -16 -12 -17 4 -4 9 7 17 15 17 17 0 8 -8 3 -21 -13z"/>
<path d="M2630 4200 c0 -5 5 -10 11 -10 5 0 7 5 4 10 -3 6 -8 10 -11 10 -2 0
-4 -4 -4 -10z"/>
<path d="M7140 4190 c0 -5 5 -10 10 -10 6 0 10 5 10 10 0 6 -4 10 -10 10 -5 0
-10 -4 -10 -10z"/>
<path d="M2670 4181 c0 -5 -10 -7 -22 -3 -13 3 -19 1 -15 -5 11 -18 47 -23 47
-7 0 8 5 14 10 14 6 0 10 -7 10 -15 0 -8 5 -15 10 -15 7 0 7 6 0 20 -11 20
-40 28 -40 11z"/>
<path d="M2160 4170 c-8 -5 -10 -10 -5 -10 6 0 17 5 25 10 8 5 11 10 5 10 -5
0 -17 -5 -25 -10z"/>
<path d="M2645 4140 c27 -12 43 -12 25 0 -8 5 -22 9 -30 9 -10 0 -8 -3 5 -9z"/>
<path d="M2687 4094 c3 -8 0 -14 -6 -14 -8 0 -8 -5 1 -19 16 -27 68 -16 68 15
0 12 -4 12 -20 2 -10 -7 -23 -9 -27 -5 -4 5 -1 12 7 17 8 6 13 10 10 11 -3 0
-13 2 -22 4 -11 2 -15 -2 -11 -11z"/>
<path d="M2610 4084 c0 -5 7 -18 15 -28 8 -11 15 -16 15 -10 0 5 -7 18 -15 28
-8 11 -15 16 -15 10z"/>
<path d="M2646 4067 c18 -26 34 -35 34 -19 0 4 -13 16 -27 26 l-27 20 20 -27z"/>
<path d="M706 4057 c3 -10 9 -15 12 -12 3 3 0 11 -7 18 -10 9 -11 8 -5 -6z"/>
<path d="M3445 4026 c-59 -26 -73 -53 -89 -169 -9 -58 -22 -136 -31 -173 -8
-37 -14 -69 -12 -71 2 -2 19 25 37 59 48 91 98 156 133 174 22 12 45 15 85 10
50 -6 128 -39 144 -61 17 -23 7 20 -18 73 -50 110 -69 144 -89 158 -25 18
-120 18 -160 0z"/>
<path d="M4112 3898 c-14 -14 -16 -42 -3 -34 7 5 23 46 17 46 -1 0 -7 -5 -14
-12z"/>
<path d="M5495 3891 c-3 -6 -12 -8 -20 -4 -8 3 -15 0 -15 -5 0 -6 12 -9 27 -6
33 6 38 10 24 18 -5 4 -12 2 -16 -3z"/>
<path d="M5460 3821 c0 -5 6 -16 14 -24 13 -12 13 -17 1 -34 -11 -16 -12 -29
-4 -57 5 -20 15 -36 20 -36 6 0 8 -12 4 -29 -7 -31 8 -71 26 -71 6 0 8 7 5 16
-3 8 -2 12 4 9 6 -3 10 1 10 10 0 9 -5 13 -10 10 -6 -4 -5 5 2 20 11 24 9 28
-16 48 -19 15 -25 27 -21 40 7 17 25 24 25 9 0 -5 14 -6 32 -4 l31 5 -29 13
c-27 12 -28 12 -5 13 18 1 21 4 12 14 -6 8 -8 17 -5 20 4 3 -1 13 -9 22 -14
13 -17 13 -33 -2 -15 -16 -17 -16 -29 0 -13 19 -25 22 -25 8z m59 -64 c0 -9
-2 -8 -6 1 -2 6 -10 9 -15 6 -7 -4 -8 -2 -4 5 9 13 26 5 25 -12z"/>
<path d="M3901 3782 c-1 -14 26 -72 34 -72 3 0 5 11 5 25 0 15 -6 25 -14 25
-8 0 -17 8 -19 18 -3 9 -5 11 -6 4z"/>
<path d="M3947 3716 c-4 -10 0 -28 10 -43 16 -24 17 -24 30 -7 15 21 17 38 3
29 -5 -3 -10 1 -10 10 0 9 -4 14 -9 11 -5 -4 -11 -1 -13 6 -3 7 -7 5 -11 -6z"/>
<path d="M3810 3656 c0 -2 8 -10 18 -17 15 -13 16 -12 3 4 -13 16 -21 21 -21
13z"/>
<path d="M565 3640 c3 -5 8 -10 11 -10 2 0 4 5 4 10 0 6 -5 10 -11 10 -5 0 -7
-4 -4 -10z"/>
<path d="M3855 3593 c11 -18 28 -43 40 -55 16 -18 160 -200 171 -216 1 -2 16
6 33 16 l32 19 -68 59 c-38 32 -104 92 -147 134 -58 55 -74 66 -61 43z"/>
<path d="M547 3572 c-12 -2 -17 -11 -15 -25 4 -31 26 -32 34 -2 7 30 6 33 -19
27z"/>
<path d="M5747 3551 c-15 -18 -35 -47 -43 -64 -20 -37 -30 -142 -17 -159 6 -7
22 -46 37 -85 44 -115 53 -101 60 92 3 72 2 157 -2 189 l-7 60 -28 -33z"/>
<path d="M5518 3523 c7 -3 16 -2 19 1 4 3 -2 6 -13 5 -11 0 -14 -3 -6 -6z"/>
<path d="M3171 3304 c-12 -19 -21 -45 -21 -57 1 -20 2 -19 17 7 15 30 34 86
28 86 -2 0 -12 -16 -24 -36z"/>
<path d="M4268 3293 c12 -2 22 -8 22 -13 0 -5 17 -14 38 -21 26 -8 42 -20 51
-40 12 -28 31 -39 31 -19 0 14 27 12 33 -2 4 -9 8 -10 14 -3 12 16 55 17 47 2
-3 -7 1 -4 9 6 8 9 22 17 31 17 9 0 15 5 13 12 -1 6 6 14 17 16 11 2 16 0 12
-7 -4 -6 -2 -11 3 -11 6 0 11 4 11 8 0 5 6 9 14 9 8 0 12 -6 9 -15 -5 -12 -3
-12 18 -1 13 7 30 14 38 15 7 2 17 6 22 11 4 4 -20 8 -54 9 -120 1 -292 14
-327 24 -19 5 -44 9 -55 9 -17 -2 -17 -2 3 -6z"/>
<path d="M4666 3151 c-4 -7 -5 -15 -2 -18 9 -9 19 4 14 18 -4 11 -6 11 -12 0z"/>
<path d="M1951 3038 c4 -24 8 -49 9 -56 0 -7 5 -10 10 -7 16 10 12 72 -6 89
-22 22 -22 21 -13 -26z"/>
<path d="M5640 3040 c0 -5 5 -10 10 -10 6 0 10 5 10 10 0 6 -4 10 -10 10 -5 0
-10 -4 -10 -10z"/>
<path d="M4216 2971 c-2 -3 0 -55 5 -116 5 -60 7 -122 3 -137 -3 -16 -1 -28 4
-28 6 0 8 -9 5 -20 -3 -13 0 -20 8 -20 8 0 29 -16 48 -35 22 -23 37 -32 41
-24 5 7 9 5 14 -6 5 -13 15 -15 53 -11 27 2 49 5 51 5 2 1 1 10 -3 21 -3 10
-8 41 -9 69 -3 33 -11 57 -25 72 -20 22 -25 42 -22 82 2 10 -5 17 -14 17 -12
0 -15 6 -10 20 4 13 1 22 -8 26 -8 3 -18 21 -21 40 -4 21 -13 34 -22 34 -8 0
-13 3 -11 8 3 4 -15 7 -39 8 -25 0 -47 -2 -48 -5z m199 -371 c-3 -5 -12 -10
-18 -10 -7 0 -6 4 3 10 19 12 23 12 15 0z"/>
<path d="M3660 2879 c0 -6 -7 -9 -15 -5 -8 3 -15 2 -15 -2 0 -5 -16 -8 -35 -8
-61 0 -102 -57 -96 -133 2 -22 123 -132 139 -126 7 3 22 5 32 5 14 0 23 14 37
58 9 31 21 59 25 62 11 9 1 77 -15 100 -9 12 -13 29 -10 38 4 10 2 13 -5 8 -7
-4 -12 -2 -12 3 0 6 -7 11 -15 11 -8 0 -15 -5 -15 -11z"/>
<path d="M3905 2786 c-54 -24 -106 -101 -67 -101 13 0 52 -40 52 -53 0 -13
-28 -36 -47 -38 -9 -2 -32 -15 -52 -31 -20 -16 -49 -35 -65 -43 -25 -13 -29
-13 -41 3 -7 10 -16 14 -19 8 -3 -5 0 -12 6 -15 10 -3 8 -9 -5 -19 -14 -12
-15 -20 -7 -41 19 -50 -9 -144 -58 -196 -21 -21 -23 -31 -18 -75 4 -27 7 -68
8 -90 1 -22 7 -43 13 -47 6 -5 6 -8 -2 -8 -6 0 -10 -8 -8 -18 5 -27 -6 -39
-41 -45 -17 -3 -47 -12 -65 -20 -19 -8 -58 -25 -88 -37 -30 -12 -78 -39 -105
-59 -77 -57 -104 -67 -159 -61 -40 5 -54 2 -83 -17 -35 -24 -44 -48 -21 -56 6
-2 19 -1 27 3 64 31 94 38 175 38 50 1 106 6 125 12 43 13 142 13 206 1 107
-20 186 -26 339 -24 135 2 173 7 242 27 59 17 98 22 135 19 29 -3 71 -6 93 -6
34 -2 108 -36 125 -57 3 -4 15 -12 27 -19 14 -7 20 -17 17 -26 -4 -11 -2 -13
9 -9 10 3 20 -2 27 -16 6 -11 15 -18 21 -15 5 4 9 2 9 -4 0 -6 6 -8 14 -5 22
8 13 47 -14 61 -14 7 -20 13 -13 13 6 0 15 10 19 23 4 12 11 25 17 29 6 4 0
27 -16 62 -15 31 -27 61 -27 65 0 5 -10 7 -21 4 -14 -4 -25 0 -31 11 -5 9 -17
16 -26 16 -10 0 -25 9 -35 20 -18 21 -47 27 -47 10 0 -7 -6 -7 -20 0 -16 9
-18 8 -14 -5 10 -26 -25 -56 -65 -55 -20 0 -52 0 -71 -1 -49 -1 -73 4 -88 18
-7 7 -25 16 -40 19 -27 6 -101 51 -114 69 -4 5 -10 6 -14 3 -4 -4 -16 -2 -28
4 -11 7 -25 11 -30 10 -5 -2 -3 4 4 13 12 14 9 16 -21 14 -19 -2 -40 0 -46 4
-6 4 -14 3 -18 -2 -3 -6 -13 -7 -21 -4 -10 4 -17 -2 -21 -15 -3 -12 -14 -24
-24 -27 -10 -4 -19 -10 -19 -15 0 -14 -68 -32 -91 -25 -17 6 -20 12 -14 33 4
15 8 47 9 71 1 32 7 46 19 50 10 4 26 21 37 39 19 30 60 45 60 22 0 -5 5 -10
10 -10 6 0 10 7 10 15 0 12 3 13 19 3 11 -7 17 -16 15 -20 -3 -4 2 -8 10 -8 9
0 16 7 16 15 0 20 17 19 29 -2 9 -16 10 -15 11 5 0 16 4 21 13 16 6 -4 9 -4 5
1 -4 4 -3 14 3 22 9 10 8 13 -5 13 -10 0 -15 4 -11 9 3 5 1 13 -5 16 -6 4 -8
21 -4 43 6 34 6 36 -9 23 -9 -7 -14 -17 -11 -22 3 -5 0 -9 -5 -9 -6 0 -11 7
-11 16 0 8 -4 12 -10 9 -5 -3 -10 -4 -10 -2 0 3 15 14 32 25 27 18 30 22 15
28 -9 3 -17 17 -17 30 0 18 6 24 23 24 20 1 20 2 4 11 -13 8 -15 14 -7 29 5
10 7 26 4 35 -4 10 -1 21 7 26 12 7 12 9 -1 9 -12 0 -12 2 -2 8 9 7 10 15 3
35 -9 23 -8 27 7 27 27 0 110 -65 105 -82 -4 -11 26 -18 32 -7 4 5 11 6 17 3
7 -4 8 -2 4 4 -4 7 -3 12 3 12 5 0 17 7 25 16 18 18 22 69 5 58 -8 -5 -10 5
-7 32 14 116 -98 197 -207 150z"/>
<path d="M3340 2737 c-71 -18 -116 -94 -91 -155 11 -27 69 -72 93 -72 7 0 57
14 110 32 87 29 97 35 92 53 -11 34 -58 105 -71 105 -7 0 -13 5 -13 10 0 6 -9
10 -19 10 -11 0 -22 4 -25 9 -9 15 -39 18 -76 8z"/>
<path d="M3876 2144 c-5 -12 -2 -15 10 -10 8 3 18 6 20 6 3 0 2 5 -1 10 -9 15
-22 12 -29 -6z"/>
<path d="M3902 2090 c-7 -18 -7 -32 -1 -35 5 -4 9 -5 10 -3 4 21 8 68 5 68 -2
0 -9 -13 -14 -30z"/>
<path d="M3783 1609 c-6 -6 -17 -11 -24 -12 -8 -2 -19 -6 -26 -10 -6 -4 -37
-7 -70 -8 -66 0 -140 -31 -155 -64 -5 -11 -25 -30 -43 -43 -19 -12 -35 -28
-35 -36 0 -14 -27 -31 -44 -27 -5 1 -6 -5 -3 -12 3 -8 0 -20 -6 -27 -9 -10 -9
-14 1 -17 6 -3 9 -10 5 -16 -4 -6 0 -8 10 -4 18 7 37 -19 30 -40 -3 -7 0 -13
5 -13 5 0 12 -9 15 -20 3 -11 1 -18 -3 -15 -5 3 -11 1 -14 -3 -12 -20 67 -5
90 17 17 17 28 20 37 13 14 -12 122 -22 221 -21 38 0 72 -4 75 -9 11 -17 54
-16 116 3 33 10 62 19 65 19 3 1 10 4 15 7 6 3 39 7 75 8 35 1 66 4 69 6 2 3
10 0 16 -5 7 -6 31 -11 54 -13 22 -1 41 -5 41 -9 0 -4 7 -5 16 -1 10 4 12 8 5
13 -7 3 5 12 26 18 20 6 40 8 43 4 7 -10 26 -9 37 1 8 8 9 12 12 40 1 9 3 9
10 -1 4 -8 12 -13 17 -12 5 1 11 -9 14 -22 3 -12 9 -18 12 -12 4 5 3 16 -2 24
-5 8 -5 21 0 30 12 23 8 60 -6 60 -7 0 -15 -6 -17 -12 -3 -7 -6 -3 -6 10 -1
12 -5 22 -11 22 -5 0 -10 6 -10 14 0 7 -9 16 -20 19 -13 3 -20 0 -20 -9 0 -8
-4 -14 -10 -14 -5 0 -10 4 -10 9 0 5 -10 11 -22 13 -13 2 -22 9 -20 16 3 15
-3 15 -31 0 -20 -10 -21 -10 -9 5 8 9 11 21 7 27 -3 5 1 10 10 10 9 0 13 -4
10 -10 -3 -5 -1 -10 5 -10 7 0 10 6 8 13 -3 6 -16 12 -29 12 -13 0 -29 6 -35
13 -5 8 -17 13 -25 12 -26 -4 -40 0 -35 9 9 14 -24 24 -81 24 -29 0 -53 4 -53
7 0 4 -11 5 -24 3 -13 -3 -37 2 -53 11 -20 10 -48 14 -81 11 -28 -2 -54 0 -57
5 -8 13 -68 13 -82 -1z"/>
<path d="M4570 1320 c18 -12 30 -13 30 -2 0 4 -10 9 -22 9 -18 2 -20 0 -8 -7z"/>
<path d="M4378 1153 c7 -3 16 -2 19 1 4 3 -2 6 -13 5 -11 0 -14 -3 -6 -6z"/>
<path d="M4060 986 c0 -9 -8 -16 -17 -16 -9 0 -29 -11 -44 -26 -14 -14 -36
-26 -48 -27 -11 -1 -21 -5 -21 -10 0 -5 -9 -5 -20 -2 -12 4 -20 2 -20 -6 0 -8
-5 -8 -17 2 -14 12 -16 12 -11 -2 5 -12 -1 -14 -31 -11 -72 9 -102 4 -128 -22
-14 -14 -32 -26 -39 -26 -7 0 -17 -6 -21 -14 -4 -8 -21 -16 -38 -18 -19 -2
-33 -11 -40 -25 -7 -16 -15 -21 -27 -17 -12 4 -18 0 -18 -11 0 -11 5 -15 15
-11 9 3 15 0 15 -9 0 -8 -7 -15 -17 -15 -9 0 -14 -2 -11 -5 3 -3 -10 -21 -28
-39 -19 -19 -34 -44 -34 -56 0 -18 -3 -20 -14 -11 -7 6 -21 9 -30 5 -9 -4 -16
-1 -16 6 0 9 -7 7 -20 -5 -12 -11 -20 -13 -20 -6 0 7 -5 9 -10 6 -6 -4 -8 -11
-5 -16 4 -5 2 -9 -2 -9 -5 0 -14 -14 -20 -31 -7 -16 -18 -29 -25 -28 -28 3
-38 -2 -38 -21 0 -11 4 -20 9 -20 5 0 13 -9 16 -20 4 -11 10 -18 14 -16 4 3 7
-4 7 -15 0 -11 -5 -18 -11 -16 -5 3 -16 -2 -23 -9 -8 -9 -9 -14 -2 -14 6 0 20
-9 32 -20 12 -11 29 -20 39 -20 9 0 27 -9 41 -19 14 -11 36 -22 49 -24 32 -5
53 -13 124 -47 57 -28 92 -42 107 -44 3 -1 9 -4 13 -8 4 -4 21 -4 37 -1 23 4
33 1 44 -16 9 -12 31 -28 50 -36 19 -8 34 -19 34 -25 0 -6 4 -9 8 -6 12 7 33
-9 36 -28 1 -10 7 -21 13 -24 6 -4 13 -18 14 -32 4 -23 8 -25 49 -24 25 0 76
4 113 8 66 8 68 8 65 34 -2 19 2 27 12 27 27 1 41 15 32 33 -7 15 -8 40 -4 80
1 6 9 12 17 12 9 0 15 9 15 25 0 14 5 25 10 25 6 0 10 -6 10 -12 0 -9 4 -8 10
2 5 8 7 24 3 35 -6 19 -5 19 13 0 19 -18 19 -18 22 2 3 20 32 55 32 39 0 -4 6
-1 14 6 8 7 11 17 8 22 -3 5 2 7 11 3 10 -4 14 -2 12 6 -8 20 8 35 39 39 16 1
32 9 34 17 3 10 0 12 -14 7 -10 -4 1 11 24 33 23 22 42 47 42 56 0 8 4 15 9
15 14 0 20 38 6 44 -7 2 -21 -2 -32 -9 -10 -8 -30 -15 -45 -15 -24 0 -25 2
-15 25 7 14 16 25 20 25 5 0 6 4 3 9 -3 4 3 16 14 26 11 10 20 24 20 32 0 8 5
11 10 8 6 -3 10 2 10 11 0 24 -39 64 -56 57 -8 -3 -14 1 -14 11 0 9 -4 16 -10
16 -5 0 -7 7 -4 15 6 14 2 16 -35 19 -8 1 -16 8 -18 16 -3 9 -1 11 4 5 9 -11
43 -16 43 -6 0 3 -3 16 -6 29 -11 41 -67 19 -60 -24 2 -10 1 -13 -1 -6 -3 6
-14 12 -26 12 -16 0 -18 3 -9 12 19 19 14 37 -8 31 -20 -5 -24 3 -20 42 1 14
-1 17 -12 9 -20 -15 -33 -12 -63 19 -25 25 -53 38 -41 19 4 -6 -38 -8 -54 -2
-3 1 -9 2 -13 1 -5 -1 -6 3 -3 8 4 5 2 12 -4 16 -5 3 -10 -1 -10 -9z m280
-475 c0 -5 -7 -11 -15 -15 -15 -5 -20 5 -8 17 9 10 23 9 23 -2z"/>
<path d="M4200 960 c0 -5 7 -7 15 -4 8 4 15 8 15 10 0 2 -7 4 -15 4 -8 0 -15
-4 -15 -10z"/>
<path d="M4560 715 c0 -7 30 -13 34 -7 3 4 -4 9 -15 9 -10 1 -19 0 -19 -2z"/>
<path d="M4480 639 c0 -5 5 -7 10 -4 6 3 10 8 10 11 0 2 -4 4 -10 4 -5 0 -10
-5 -10 -11z"/>
</g>
</svg>
